<svg width="36" height="36" viewBox="0 0 36 36" fill="none" xmlns="http://www.w3.org/2000/svg">
<path d="M0 9C0 4.02944 4.02944 0 9 0H27C31.9706 0 36 4.02944 36 9V27C36 31.9706 31.9706 36 27 36H9C4.02944 36 0 31.9706 0 27V9Z" fill="#2ECC71"/>
<path fill-rule="evenodd" clip-rule="evenodd" d="M11.7967 5.01237C9.70465 5.26417 7.89322 6.2575 6.52281 7.90413C5.52989 9.09725 5.21154 9.71104 4.70931 11.401C4.26445 12.8977 4.26061 12.9353 4.25512 15.8607C4.25086 18.1832 4.30342 19.0882 4.5028 20.1145C5.08996 23.1375 6.26236 25.4637 8.11249 27.2757C9.47769 28.6129 9.63055 28.7283 11.042 29.4867C13.3698 30.7373 15.2999 31.1538 18.3117 31.0552C19.9689 31.0009 20.4912 30.9295 21.4147 30.6308C22.6926 30.2174 24.2197 29.4125 25.2848 28.5908C27.583 26.8178 29.5728 23.5042 30.9105 19.2225C31.8398 16.2484 31.9298 15.6167 31.4877 15.1746C31.2222 14.909 31.0303 14.9001 25.6058 14.9001C20.102 14.9001 19.9914 14.9055 19.6288 15.1908C19.2607 15.4803 17.7334 17.73 17.2149 18.746C16.866 19.4299 16.8719 19.6379 17.2475 19.9008C17.4965 20.0754 18.0129 20.1145 20.0647 20.1145C22.1192 20.1145 22.5908 20.1503 22.6525 20.3111C22.7744 20.6288 22.0636 21.6907 21.1839 22.5052C20.1916 23.4239 19.1032 23.8194 17.5673 23.8194C16.357 23.8194 15.555 23.5916 14.6668 22.9958C13.7346 22.3706 13.1307 21.6381 12.7152 20.6289C11.7293 18.2344 12.5646 15.6019 14.6381 14.5686C15.3463 14.2157 15.3659 14.214 18.7875 14.2138C21.7856 14.2136 22.2868 14.1829 22.7056 13.9736C23.1908 13.7313 23.955 12.6547 27.1817 7.66811C28.4188 5.75651 28.4949 5.47713 27.8763 5.12311C27.6481 4.99247 25.7971 4.94719 20.0985 4.93251C15.9853 4.92194 12.2495 4.95789 11.7967 5.01237Z" fill="white"/>
</svg>
